<svg xmlns="http://www.w3.org/2000/svg" width="32" height="48" viewBox="0 0 32 48">
  <metadata><?xpacket begin="﻿" id="W5M0MpCehiHzreSzNTczkc9d"?>
<x:xmpmeta xmlns:x="adobe:ns:meta/" x:xmptk="Adobe XMP Core 5.6-c142 79.160924, 2017/07/13-01:06:39        ">
   <rdf:RDF xmlns:rdf="http://www.w3.org/1999/02/22-rdf-syntax-ns#">
      <rdf:Description rdf:about=""/>
   </rdf:RDF>
</x:xmpmeta>
                                                                                                    
                                                                                                    
                                                                                                    
                                                                                                    
                                                                                                    
                                                                                                    
                                                                                                    
                                                                                                    
                                                                                                    
                                                                                                    
                                                                                                    
                                                                                                    
                                                                                                    
                                                                                                    
                                                                                                    
                                                                                                    
                                                                                                    
                                                                                                    
                                                                                                    
                                                                                                    
                           
<?xpacket end="w"?></metadata>
<defs>
    <style>
      .cls-1 {
        fill: #fff;
        fill-rule: evenodd;
      }
    </style>
  </defs>
  <path id="icon" class="cls-1" d="M801.324,703H798.67c-8.253.618-14.672,7.068-14.672,14.817v18.254C784,744.3,791.176,751,800,751s16-6.7,16-14.931V717.811C816,710.068,809.58,703.617,801.324,703ZM813,735.868c0,6.685-5.833,12.119-13,12.119s-13-5.434-13-12.119V718.1c0-6.683,5.832-12.118,13-12.118s13,5.435,13,12.118v17.765ZM800,716a1.981,1.981,0,0,0-2,1.967v5.066a2,2,0,0,0,3.992,0v-5.066A1.982,1.982,0,0,0,800,716Z" transform="translate(-784 -703)"/>
</svg>
